<mxfile host="app.diagrams.net" modified="2023-04-18T23:22:09.434Z" agent="Mozilla/5.0 (Windows NT 10.0; Win64; x64) AppleWebKit/537.36 (KHTML, like Gecko) Chrome/112.0.0.0 Safari/537.36" etag="NfxaKIwZYaOCUe9SjoZx" version="21.1.8" type="device">
  <diagram id="C5RBs43oDa-KdzZeNtuy" name="Page-1">
    <mxGraphModel dx="1050" dy="637" grid="1" gridSize="10" guides="1" tooltips="1" connect="1" arrows="1" fold="1" page="1" pageScale="1" pageWidth="827" pageHeight="1169" math="0" shadow="0">
      <root>
        <mxCell id="WIyWlLk6GJQsqaUBKTNV-0" />
        <mxCell id="WIyWlLk6GJQsqaUBKTNV-1" parent="WIyWlLk6GJQsqaUBKTNV-0" />
        <mxCell id="RneimjByqYZQrrv_H-xZ-196" value="" style="endArrow=block;html=1;rounded=0;exitX=0;exitY=0.5;exitDx=0;exitDy=0;verticalAlign=middle;labelBackgroundColor=none;horizontal=1;strokeWidth=1;endFill=0;entryX=0.5;entryY=0;entryDx=0;entryDy=0;strokeColor=#00CC00;sketch=1;curveFitting=1;jiggle=2;" parent="WIyWlLk6GJQsqaUBKTNV-1" source="wOWvD_XrdnhtHNe5OrQB-17" target="RneimjByqYZQrrv_H-xZ-288" edge="1">
          <mxGeometry relative="1" as="geometry">
            <mxPoint x="1221.250000000001" y="692.37" as="sourcePoint" />
            <mxPoint x="1140" y="768.62" as="targetPoint" />
            <Array as="points">
              <mxPoint x="1143" y="683.62" />
            </Array>
          </mxGeometry>
        </mxCell>
        <mxCell id="RneimjByqYZQrrv_H-xZ-197" value="" style="endArrow=block;html=1;rounded=0;exitX=1;exitY=0.5;exitDx=0;exitDy=0;verticalAlign=middle;labelBackgroundColor=none;horizontal=1;sketch=1;curveFitting=1;jiggle=2;strokeWidth=1;endFill=0;strokeColor=#FF0000;entryX=0.5;entryY=0;entryDx=0;entryDy=0;" parent="WIyWlLk6GJQsqaUBKTNV-1" source="wOWvD_XrdnhtHNe5OrQB-17" target="RneimjByqYZQrrv_H-xZ-287" edge="1">
          <mxGeometry relative="1" as="geometry">
            <mxPoint x="1308.749999999999" y="692.37" as="sourcePoint" />
            <mxPoint x="1450" y="738.62" as="targetPoint" />
            <Array as="points">
              <mxPoint x="1393" y="684" />
            </Array>
          </mxGeometry>
        </mxCell>
        <mxCell id="RneimjByqYZQrrv_H-xZ-214" value="" style="endArrow=block;html=1;rounded=0;exitX=0.5;exitY=1;exitDx=0;exitDy=0;sketch=1;curveFitting=1;jiggle=2;endFill=0;strokeColor=#FF0000;entryX=0.5;entryY=0;entryDx=0;entryDy=0;" parent="WIyWlLk6GJQsqaUBKTNV-1" source="RneimjByqYZQrrv_H-xZ-238" target="RneimjByqYZQrrv_H-xZ-290" edge="1">
          <mxGeometry width="50" height="50" relative="1" as="geometry">
            <mxPoint x="978" y="1845" as="sourcePoint" />
            <mxPoint x="560" y="1670" as="targetPoint" />
          </mxGeometry>
        </mxCell>
        <mxCell id="RneimjByqYZQrrv_H-xZ-261" value="&lt;b&gt;Landing page&lt;/b&gt;" style="rounded=1;whiteSpace=wrap;html=1;glass=0;strokeWidth=3;shadow=1;verticalAlign=middle;labelBackgroundColor=none;horizontal=1;strokeColor=#56517e;fillColor=#d0cee2;" parent="WIyWlLk6GJQsqaUBKTNV-1" vertex="1">
          <mxGeometry x="1212" y="548.62" width="106" height="42.75" as="geometry" />
        </mxCell>
        <mxCell id="RneimjByqYZQrrv_H-xZ-264" value="" style="endArrow=none;dashed=1;html=1;rounded=0;sketch=1;curveFitting=1;jiggle=2;entryX=0.5;entryY=1;entryDx=0;entryDy=0;exitX=0.5;exitY=0;exitDx=0;exitDy=0;strokeColor=#808080;" parent="WIyWlLk6GJQsqaUBKTNV-1" source="wOWvD_XrdnhtHNe5OrQB-17" target="RneimjByqYZQrrv_H-xZ-261" edge="1">
          <mxGeometry width="50" height="50" relative="1" as="geometry">
            <mxPoint x="1265" y="648.62" as="sourcePoint" />
            <mxPoint x="1149" y="598.62" as="targetPoint" />
          </mxGeometry>
        </mxCell>
        <mxCell id="RneimjByqYZQrrv_H-xZ-266" value="" style="endArrow=block;html=1;rounded=0;exitX=0;exitY=0.5;exitDx=0;exitDy=0;entryX=1;entryY=0.5;entryDx=0;entryDy=0;sketch=1;curveFitting=1;jiggle=2;endFill=0;strokeColor=#808080;" parent="WIyWlLk6GJQsqaUBKTNV-1" source="RneimjByqYZQrrv_H-xZ-287" target="RneimjByqYZQrrv_H-xZ-288" edge="1">
          <mxGeometry width="50" height="50" relative="1" as="geometry">
            <mxPoint x="1350" y="789.9949999999999" as="sourcePoint" />
            <mxPoint x="1186.4" y="788.6199999999999" as="targetPoint" />
          </mxGeometry>
        </mxCell>
        <mxCell id="RneimjByqYZQrrv_H-xZ-269" value="" style="endArrow=block;html=1;rounded=0;entryX=0;entryY=0.5;entryDx=0;entryDy=0;exitX=1;exitY=0.5;exitDx=0;exitDy=0;sketch=1;curveFitting=1;jiggle=2;endFill=0;strokeColor=#808080;" parent="WIyWlLk6GJQsqaUBKTNV-1" source="RneimjByqYZQrrv_H-xZ-216" target="RneimjByqYZQrrv_H-xZ-261" edge="1">
          <mxGeometry width="50" height="50" relative="1" as="geometry">
            <mxPoint x="1380" y="698.62" as="sourcePoint" />
            <mxPoint x="1093.6" y="788.6199999999999" as="targetPoint" />
          </mxGeometry>
        </mxCell>
        <mxCell id="RneimjByqYZQrrv_H-xZ-271" value="" style="endArrow=block;html=1;rounded=0;entryX=0.5;entryY=0;entryDx=0;entryDy=0;sketch=1;curveFitting=1;jiggle=2;endFill=0;exitX=0.5;exitY=1;exitDx=0;exitDy=0;strokeColor=#808080;" parent="WIyWlLk6GJQsqaUBKTNV-1" source="RneimjByqYZQrrv_H-xZ-289" target="RneimjByqYZQrrv_H-xZ-233" edge="1">
          <mxGeometry width="50" height="50" relative="1" as="geometry">
            <mxPoint x="270" y="1530" as="sourcePoint" />
            <mxPoint x="560" y="1450" as="targetPoint" />
          </mxGeometry>
        </mxCell>
        <mxCell id="RneimjByqYZQrrv_H-xZ-273" value="" style="endArrow=block;html=1;rounded=0;entryX=0;entryY=0.5;entryDx=0;entryDy=0;exitX=1;exitY=0.5;exitDx=0;exitDy=0;sketch=1;curveFitting=1;jiggle=2;endFill=0;strokeColor=#808080;" parent="WIyWlLk6GJQsqaUBKTNV-1" source="RneimjByqYZQrrv_H-xZ-233" target="RneimjByqYZQrrv_H-xZ-191" edge="1">
          <mxGeometry width="50" height="50" relative="1" as="geometry">
            <mxPoint x="510" y="1500" as="sourcePoint" />
            <mxPoint x="560" y="1450" as="targetPoint" />
          </mxGeometry>
        </mxCell>
        <mxCell id="RneimjByqYZQrrv_H-xZ-274" value="" style="endArrow=block;html=1;rounded=0;exitX=1;exitY=0.5;exitDx=0;exitDy=0;entryX=0;entryY=0.5;entryDx=0;entryDy=0;sketch=1;curveFitting=1;jiggle=2;endFill=0;strokeColor=#808080;" parent="WIyWlLk6GJQsqaUBKTNV-1" source="RneimjByqYZQrrv_H-xZ-191" target="RneimjByqYZQrrv_H-xZ-238" edge="1">
          <mxGeometry width="50" height="50" relative="1" as="geometry">
            <mxPoint x="510" y="1500" as="sourcePoint" />
            <mxPoint x="560" y="1450" as="targetPoint" />
          </mxGeometry>
        </mxCell>
        <mxCell id="RneimjByqYZQrrv_H-xZ-275" value="" style="endArrow=block;html=1;rounded=0;exitX=1;exitY=0.5;exitDx=0;exitDy=0;entryX=0;entryY=0.5;entryDx=0;entryDy=0;sketch=1;curveFitting=1;jiggle=2;endFill=0;strokeColor=#00CC00;" parent="WIyWlLk6GJQsqaUBKTNV-1" source="RneimjByqYZQrrv_H-xZ-238" target="wOWvD_XrdnhtHNe5OrQB-11" edge="1">
          <mxGeometry width="50" height="50" relative="1" as="geometry">
            <mxPoint x="510" y="1500" as="sourcePoint" />
            <mxPoint x="670" y="1600" as="targetPoint" />
          </mxGeometry>
        </mxCell>
        <mxCell id="RneimjByqYZQrrv_H-xZ-279" value="" style="endArrow=block;html=1;rounded=0;entryX=1;entryY=0.5;entryDx=0;entryDy=0;exitX=0;exitY=0.5;exitDx=0;exitDy=0;sketch=1;curveFitting=1;jiggle=2;endFill=0;strokeColor=#808080;" parent="WIyWlLk6GJQsqaUBKTNV-1" source="RneimjByqYZQrrv_H-xZ-221" target="RneimjByqYZQrrv_H-xZ-224" edge="1">
          <mxGeometry width="50" height="50" relative="1" as="geometry">
            <mxPoint x="438.75" y="1750" as="sourcePoint" />
            <mxPoint x="488.75" y="1700" as="targetPoint" />
          </mxGeometry>
        </mxCell>
        <mxCell id="RneimjByqYZQrrv_H-xZ-280" value="" style="endArrow=block;html=1;rounded=0;exitX=0;exitY=0.5;exitDx=0;exitDy=0;entryX=1;entryY=0.5;entryDx=0;entryDy=0;sketch=1;curveFitting=1;jiggle=2;endFill=0;strokeColor=#808080;" parent="WIyWlLk6GJQsqaUBKTNV-1" source="RneimjByqYZQrrv_H-xZ-224" target="RneimjByqYZQrrv_H-xZ-229" edge="1">
          <mxGeometry width="50" height="50" relative="1" as="geometry">
            <mxPoint x="510" y="1600" as="sourcePoint" />
            <mxPoint x="560" y="1550" as="targetPoint" />
          </mxGeometry>
        </mxCell>
        <mxCell id="RneimjByqYZQrrv_H-xZ-281" value="" style="endArrow=block;html=1;rounded=0;exitX=0;exitY=0.5;exitDx=0;exitDy=0;entryX=1;entryY=0.5;entryDx=0;entryDy=0;sketch=1;curveFitting=1;jiggle=2;endFill=0;strokeColor=#808080;" parent="WIyWlLk6GJQsqaUBKTNV-1" source="RneimjByqYZQrrv_H-xZ-229" target="RneimjByqYZQrrv_H-xZ-251" edge="1">
          <mxGeometry width="50" height="50" relative="1" as="geometry">
            <mxPoint x="510" y="1600" as="sourcePoint" />
            <mxPoint x="560" y="1550" as="targetPoint" />
          </mxGeometry>
        </mxCell>
        <mxCell id="RneimjByqYZQrrv_H-xZ-285" value="" style="endArrow=block;html=1;rounded=0;exitX=0.5;exitY=0;exitDx=0;exitDy=0;sketch=1;curveFitting=1;jiggle=2;endFill=0;entryX=0;entryY=0.5;entryDx=0;entryDy=0;strokeColor=#808080;" parent="WIyWlLk6GJQsqaUBKTNV-1" source="RneimjByqYZQrrv_H-xZ-251" target="RneimjByqYZQrrv_H-xZ-289" edge="1">
          <mxGeometry relative="1" as="geometry">
            <mxPoint x="480" y="1500" as="sourcePoint" />
            <mxPoint x="190" y="1490" as="targetPoint" />
            <Array as="points">
              <mxPoint x="130" y="1491" />
            </Array>
          </mxGeometry>
        </mxCell>
        <mxCell id="RneimjByqYZQrrv_H-xZ-286" value="Added to&lt;br&gt;database" style="edgeLabel;resizable=0;html=1;align=center;verticalAlign=middle;" parent="RneimjByqYZQrrv_H-xZ-285" connectable="0" vertex="1">
          <mxGeometry relative="1" as="geometry">
            <mxPoint y="2" as="offset" />
          </mxGeometry>
        </mxCell>
        <mxCell id="RneimjByqYZQrrv_H-xZ-287" value="&lt;b&gt;Sign up page&lt;/b&gt;" style="rounded=1;whiteSpace=wrap;html=1;glass=0;strokeWidth=3;shadow=1;verticalAlign=middle;labelBackgroundColor=none;horizontal=1;strokeColor=#56517e;fillColor=#d0cee2;flipV=0;" parent="WIyWlLk6GJQsqaUBKTNV-1" vertex="1">
          <mxGeometry x="1340" y="768.62" width="106" height="42.75" as="geometry" />
        </mxCell>
        <mxCell id="RneimjByqYZQrrv_H-xZ-288" value="&lt;b&gt;Login page&lt;/b&gt;" style="rounded=1;whiteSpace=wrap;html=1;glass=0;strokeWidth=3;shadow=1;verticalAlign=middle;labelBackgroundColor=none;horizontal=1;strokeColor=#56517e;fillColor=#d0cee2;" parent="WIyWlLk6GJQsqaUBKTNV-1" vertex="1">
          <mxGeometry x="1090" y="768.62" width="106" height="42.75" as="geometry" />
        </mxCell>
        <mxCell id="RneimjByqYZQrrv_H-xZ-289" value="&lt;b&gt;View posts&lt;/b&gt;" style="rounded=1;whiteSpace=wrap;html=1;glass=0;strokeWidth=3;shadow=1;verticalAlign=middle;labelBackgroundColor=none;horizontal=1;strokeColor=#d79b00;fillColor=#ffe6cc;" parent="WIyWlLk6GJQsqaUBKTNV-1" vertex="1">
          <mxGeometry x="220" y="1470" width="106" height="42.75" as="geometry" />
        </mxCell>
        <mxCell id="RneimjByqYZQrrv_H-xZ-290" value="&lt;b&gt;Create post&lt;/b&gt;" style="rounded=1;whiteSpace=wrap;html=1;glass=0;strokeWidth=3;shadow=1;verticalAlign=middle;labelBackgroundColor=none;horizontal=1;strokeColor=#82b366;fillColor=#d5e8d4;" parent="WIyWlLk6GJQsqaUBKTNV-1" vertex="1">
          <mxGeometry x="515.6" y="1684" width="106" height="42.75" as="geometry" />
        </mxCell>
        <mxCell id="wOWvD_XrdnhtHNe5OrQB-0" value="" style="endArrow=block;html=1;rounded=0;exitX=0.5;exitY=1;exitDx=0;exitDy=0;entryX=0.5;entryY=0;entryDx=0;entryDy=0;sketch=1;curveFitting=1;jiggle=2;endFill=0;strokeColor=#808080;" parent="WIyWlLk6GJQsqaUBKTNV-1" source="RneimjByqYZQrrv_H-xZ-290" target="RneimjByqYZQrrv_H-xZ-221" edge="1">
          <mxGeometry relative="1" as="geometry">
            <mxPoint x="610" y="1690" as="sourcePoint" />
            <mxPoint x="710" y="1690" as="targetPoint" />
          </mxGeometry>
        </mxCell>
        <mxCell id="wOWvD_XrdnhtHNe5OrQB-1" value="Dialog box" style="edgeLabel;resizable=0;html=1;align=center;verticalAlign=middle;" parent="wOWvD_XrdnhtHNe5OrQB-0" connectable="0" vertex="1">
          <mxGeometry relative="1" as="geometry" />
        </mxCell>
        <mxCell id="wOWvD_XrdnhtHNe5OrQB-2" value="&lt;b&gt;Dashboard&lt;/b&gt;" style="rounded=1;whiteSpace=wrap;html=1;glass=0;strokeWidth=3;shadow=1;verticalAlign=middle;labelBackgroundColor=none;horizontal=1;strokeColor=#6c8ebf;fillColor=#dae8fc;" parent="WIyWlLk6GJQsqaUBKTNV-1" vertex="1">
          <mxGeometry x="220" y="1360" width="106" height="42.75" as="geometry" />
        </mxCell>
        <mxCell id="wOWvD_XrdnhtHNe5OrQB-4" value="" style="endArrow=block;html=1;rounded=0;exitX=0.5;exitY=1;exitDx=0;exitDy=0;entryX=0.5;entryY=0;entryDx=0;entryDy=0;sketch=1;curveFitting=1;jiggle=2;endFill=0;strokeColor=#808080;" parent="WIyWlLk6GJQsqaUBKTNV-1" source="wOWvD_XrdnhtHNe5OrQB-2" target="RneimjByqYZQrrv_H-xZ-289" edge="1">
          <mxGeometry width="50" height="50" relative="1" as="geometry">
            <mxPoint x="630" y="1500" as="sourcePoint" />
            <mxPoint x="680" y="1450" as="targetPoint" />
          </mxGeometry>
        </mxCell>
        <mxCell id="wOWvD_XrdnhtHNe5OrQB-7" value="" style="endArrow=block;html=1;rounded=0;entryX=0;entryY=0.5;entryDx=0;entryDy=0;sketch=1;curveFitting=1;jiggle=2;endFill=0;strokeColor=#808080;" parent="WIyWlLk6GJQsqaUBKTNV-1" target="wOWvD_XrdnhtHNe5OrQB-2" edge="1">
          <mxGeometry relative="1" as="geometry">
            <mxPoint x="130" y="1540" as="sourcePoint" />
            <mxPoint x="710" y="1580" as="targetPoint" />
            <Array as="points">
              <mxPoint x="130" y="1381" />
            </Array>
          </mxGeometry>
        </mxCell>
        <mxCell id="wOWvD_XrdnhtHNe5OrQB-8" value="And dashboard" style="edgeLabel;resizable=0;html=1;align=center;verticalAlign=middle;" parent="wOWvD_XrdnhtHNe5OrQB-7" connectable="0" vertex="1">
          <mxGeometry relative="1" as="geometry">
            <mxPoint y="25" as="offset" />
          </mxGeometry>
        </mxCell>
        <mxCell id="wOWvD_XrdnhtHNe5OrQB-23" value="" style="endArrow=none;dashed=1;html=1;rounded=0;sketch=1;curveFitting=1;jiggle=2;entryX=0;entryY=0.5;entryDx=0;entryDy=0;exitX=1;exitY=0.5;exitDx=0;exitDy=0;strokeColor=#808080;" parent="WIyWlLk6GJQsqaUBKTNV-1" source="wOWvD_XrdnhtHNe5OrQB-2" target="wOWvD_XrdnhtHNe5OrQB-21" edge="1">
          <mxGeometry width="50" height="50" relative="1" as="geometry">
            <mxPoint x="370" y="1367" as="sourcePoint" />
            <mxPoint x="370" y="1310" as="targetPoint" />
          </mxGeometry>
        </mxCell>
        <mxCell id="wOWvD_XrdnhtHNe5OrQB-33" value="" style="endArrow=block;html=1;rounded=0;exitX=1;exitY=0.5;exitDx=0;exitDy=0;entryX=0;entryY=0.5;entryDx=0;entryDy=0;sketch=1;curveFitting=1;jiggle=2;endFill=0;strokeColor=#00CC00;" parent="WIyWlLk6GJQsqaUBKTNV-1" source="wOWvD_XrdnhtHNe5OrQB-21" target="wOWvD_XrdnhtHNe5OrQB-25" edge="1">
          <mxGeometry width="50" height="50" relative="1" as="geometry">
            <mxPoint x="622" y="1511.38" as="sourcePoint" />
            <mxPoint x="672" y="1461.38" as="targetPoint" />
          </mxGeometry>
        </mxCell>
        <mxCell id="wOWvD_XrdnhtHNe5OrQB-34" value="" style="endArrow=block;html=1;rounded=0;exitX=1;exitY=0.5;exitDx=0;exitDy=0;entryX=0;entryY=0.5;entryDx=0;entryDy=0;sketch=1;curveFitting=1;jiggle=2;endFill=0;strokeColor=#808080;" parent="WIyWlLk6GJQsqaUBKTNV-1" source="wOWvD_XrdnhtHNe5OrQB-25" target="wOWvD_XrdnhtHNe5OrQB-28" edge="1">
          <mxGeometry width="50" height="50" relative="1" as="geometry">
            <mxPoint x="622" y="1511.38" as="sourcePoint" />
            <mxPoint x="672" y="1461.38" as="targetPoint" />
          </mxGeometry>
        </mxCell>
        <mxCell id="wOWvD_XrdnhtHNe5OrQB-35" value="" style="endArrow=block;html=1;rounded=0;exitX=1;exitY=0.5;exitDx=0;exitDy=0;entryX=0;entryY=0.5;entryDx=0;entryDy=0;sketch=1;curveFitting=1;jiggle=2;endFill=0;strokeColor=#808080;" parent="WIyWlLk6GJQsqaUBKTNV-1" source="wOWvD_XrdnhtHNe5OrQB-28" target="wOWvD_XrdnhtHNe5OrQB-31" edge="1">
          <mxGeometry width="50" height="50" relative="1" as="geometry">
            <mxPoint x="622" y="1511.38" as="sourcePoint" />
            <mxPoint x="672" y="1461.38" as="targetPoint" />
          </mxGeometry>
        </mxCell>
        <mxCell id="6KQVbv0x_s1jiuC0rgCA-0" value="" style="endArrow=classic;html=1;rounded=0;exitX=0.5;exitY=1;exitDx=0;exitDy=0;entryX=0.5;entryY=1;entryDx=0;entryDy=0;sketch=1;curveFitting=1;jiggle=2;strokeColor=#808080;" parent="WIyWlLk6GJQsqaUBKTNV-1" source="wOWvD_XrdnhtHNe5OrQB-11" target="RneimjByqYZQrrv_H-xZ-251" edge="1">
          <mxGeometry width="50" height="50" relative="1" as="geometry">
            <mxPoint x="380" y="1610" as="sourcePoint" />
            <mxPoint x="430" y="1560" as="targetPoint" />
            <Array as="points">
              <mxPoint x="720" y="1890" />
              <mxPoint x="130" y="1890" />
            </Array>
          </mxGeometry>
        </mxCell>
        <mxCell id="_yKtbphsDDPIgUGRfR-J-3" value="" style="endArrow=block;html=1;rounded=0;exitX=0.5;exitY=1;exitDx=0;exitDy=0;entryX=0.5;entryY=0;entryDx=0;entryDy=0;sketch=1;curveFitting=1;jiggle=2;endFill=0;strokeColor=#FF0000;" edge="1" parent="WIyWlLk6GJQsqaUBKTNV-1" source="wOWvD_XrdnhtHNe5OrQB-21" target="_yKtbphsDDPIgUGRfR-J-1">
          <mxGeometry width="50" height="50" relative="1" as="geometry">
            <mxPoint x="490" y="1391" as="sourcePoint" />
            <mxPoint x="532" y="1391" as="targetPoint" />
          </mxGeometry>
        </mxCell>
        <mxCell id="_yKtbphsDDPIgUGRfR-J-4" value="" style="endArrow=block;html=1;rounded=0;entryX=1;entryY=0.5;entryDx=0;entryDy=0;exitX=0;exitY=0.5;exitDx=0;exitDy=0;sketch=1;curveFitting=1;jiggle=2;endFill=0;strokeColor=#808080;" edge="1" parent="WIyWlLk6GJQsqaUBKTNV-1" source="_yKtbphsDDPIgUGRfR-J-1" target="RneimjByqYZQrrv_H-xZ-289">
          <mxGeometry width="50" height="50" relative="1" as="geometry">
            <mxPoint x="480" y="1510" as="sourcePoint" />
            <mxPoint x="530" y="1460" as="targetPoint" />
          </mxGeometry>
        </mxCell>
        <mxCell id="wOWvD_XrdnhtHNe5OrQB-31" value="" style="ellipse;whiteSpace=wrap;html=1;sketch=1;curveFitting=1;jiggle=2;strokeColor=#3399FF;" parent="WIyWlLk6GJQsqaUBKTNV-1" vertex="1">
          <mxGeometry x="802" y="1351.38" width="100" height="60" as="geometry" />
        </mxCell>
        <mxCell id="wOWvD_XrdnhtHNe5OrQB-32" value="Delete content" style="text;html=1;strokeColor=none;fillColor=none;align=center;verticalAlign=middle;whiteSpace=wrap;rounded=0;" parent="WIyWlLk6GJQsqaUBKTNV-1" vertex="1">
          <mxGeometry x="813.1111111111111" y="1366.38" width="77.77777777777779" height="30" as="geometry" />
        </mxCell>
        <mxCell id="wOWvD_XrdnhtHNe5OrQB-28" value="" style="ellipse;whiteSpace=wrap;html=1;sketch=1;curveFitting=1;jiggle=2;strokeColor=#3399FF;" parent="WIyWlLk6GJQsqaUBKTNV-1" vertex="1">
          <mxGeometry x="662" y="1351.38" width="100" height="60" as="geometry" />
        </mxCell>
        <mxCell id="wOWvD_XrdnhtHNe5OrQB-29" value="Edit content" style="text;html=1;strokeColor=none;fillColor=none;align=center;verticalAlign=middle;whiteSpace=wrap;rounded=0;" parent="WIyWlLk6GJQsqaUBKTNV-1" vertex="1">
          <mxGeometry x="673.1111111111111" y="1366.38" width="77.77777777777779" height="30" as="geometry" />
        </mxCell>
        <mxCell id="wOWvD_XrdnhtHNe5OrQB-25" value="" style="ellipse;whiteSpace=wrap;html=1;sketch=1;curveFitting=1;jiggle=2;strokeColor=#3399FF;" parent="WIyWlLk6GJQsqaUBKTNV-1" vertex="1">
          <mxGeometry x="522" y="1351.38" width="100" height="60" as="geometry" />
        </mxCell>
        <mxCell id="wOWvD_XrdnhtHNe5OrQB-26" value="Browse content" style="text;html=1;strokeColor=none;fillColor=none;align=center;verticalAlign=middle;whiteSpace=wrap;rounded=0;" parent="WIyWlLk6GJQsqaUBKTNV-1" vertex="1">
          <mxGeometry x="533.1111111111111" y="1366.38" width="77.77777777777779" height="30" as="geometry" />
        </mxCell>
        <mxCell id="wOWvD_XrdnhtHNe5OrQB-21" value="" style="ellipse;whiteSpace=wrap;html=1;sketch=1;curveFitting=1;jiggle=2;strokeColor=#3399FF;" parent="WIyWlLk6GJQsqaUBKTNV-1" vertex="1">
          <mxGeometry x="380" y="1346.38" width="100" height="70" as="geometry" />
        </mxCell>
        <mxCell id="wOWvD_XrdnhtHNe5OrQB-22" value="User has posted content?" style="text;html=1;strokeColor=none;fillColor=none;align=center;verticalAlign=middle;whiteSpace=wrap;rounded=0;" parent="WIyWlLk6GJQsqaUBKTNV-1" vertex="1">
          <mxGeometry x="391.1111111111111" y="1363.88" width="77.77777777777779" height="35" as="geometry" />
        </mxCell>
        <mxCell id="_yKtbphsDDPIgUGRfR-J-1" value="" style="ellipse;whiteSpace=wrap;html=1;sketch=1;curveFitting=1;jiggle=2;strokeColor=#3399FF;" vertex="1" parent="WIyWlLk6GJQsqaUBKTNV-1">
          <mxGeometry x="380" y="1456.38" width="100" height="70" as="geometry" />
        </mxCell>
        <mxCell id="_yKtbphsDDPIgUGRfR-J-2" value="Prompt them to check posts" style="text;html=1;strokeColor=none;fillColor=none;align=center;verticalAlign=middle;whiteSpace=wrap;rounded=0;" vertex="1" parent="WIyWlLk6GJQsqaUBKTNV-1">
          <mxGeometry x="391.11" y="1473.88" width="78.89" height="35" as="geometry" />
        </mxCell>
        <mxCell id="RneimjByqYZQrrv_H-xZ-233" value="" style="ellipse;whiteSpace=wrap;html=1;sketch=1;curveFitting=1;jiggle=2;strokeColor=#FFB570;" parent="WIyWlLk6GJQsqaUBKTNV-1" vertex="1">
          <mxGeometry x="220" y="1570" width="100" height="60" as="geometry" />
        </mxCell>
        <mxCell id="RneimjByqYZQrrv_H-xZ-234" value="Displays a list of all posts" style="text;html=1;strokeColor=none;fillColor=none;align=center;verticalAlign=middle;whiteSpace=wrap;rounded=0;" parent="WIyWlLk6GJQsqaUBKTNV-1" vertex="1">
          <mxGeometry x="231.11111111111111" y="1585" width="77.77777777777779" height="30" as="geometry" />
        </mxCell>
        <mxCell id="RneimjByqYZQrrv_H-xZ-191" value="" style="ellipse;whiteSpace=wrap;html=1;sketch=1;curveFitting=1;jiggle=2;strokeColor=#FFB570;" parent="WIyWlLk6GJQsqaUBKTNV-1" vertex="1">
          <mxGeometry x="370" y="1570" width="100" height="60" as="geometry" />
        </mxCell>
        <mxCell id="RneimjByqYZQrrv_H-xZ-192" value="User can filter posts&amp;nbsp;" style="text;html=1;strokeColor=none;fillColor=none;align=center;verticalAlign=middle;whiteSpace=wrap;rounded=0;" parent="WIyWlLk6GJQsqaUBKTNV-1" vertex="1">
          <mxGeometry x="381.1111111111111" y="1585" width="77.77777777777779" height="30" as="geometry" />
        </mxCell>
        <mxCell id="RneimjByqYZQrrv_H-xZ-238" value="" style="ellipse;whiteSpace=wrap;html=1;sketch=1;curveFitting=1;jiggle=2;strokeColor=#FFB570;" parent="WIyWlLk6GJQsqaUBKTNV-1" vertex="1">
          <mxGeometry x="518.6" y="1565" width="100" height="70" as="geometry" />
        </mxCell>
        <mxCell id="RneimjByqYZQrrv_H-xZ-239" value="Disc you found/lost listed?" style="text;html=1;strokeColor=none;fillColor=none;align=center;verticalAlign=middle;whiteSpace=wrap;rounded=0;" parent="WIyWlLk6GJQsqaUBKTNV-1" vertex="1">
          <mxGeometry x="529.7111111111111" y="1582.5" width="77.77777777777779" height="35" as="geometry" />
        </mxCell>
        <mxCell id="wOWvD_XrdnhtHNe5OrQB-11" value="" style="ellipse;whiteSpace=wrap;html=1;sketch=1;curveFitting=1;jiggle=2;strokeColor=#FFB570;" parent="WIyWlLk6GJQsqaUBKTNV-1" vertex="1">
          <mxGeometry x="670" y="1565" width="100" height="70" as="geometry" />
        </mxCell>
        <mxCell id="wOWvD_XrdnhtHNe5OrQB-12" value="Great! Add a comment" style="text;html=1;strokeColor=none;fillColor=none;align=center;verticalAlign=middle;whiteSpace=wrap;rounded=0;" parent="WIyWlLk6GJQsqaUBKTNV-1" vertex="1">
          <mxGeometry x="681.1111111111111" y="1582.5" width="77.77777777777779" height="35" as="geometry" />
        </mxCell>
        <mxCell id="RneimjByqYZQrrv_H-xZ-221" value="" style="ellipse;whiteSpace=wrap;html=1;sketch=1;curveFitting=1;jiggle=2;strokeColor=#97D077;" parent="WIyWlLk6GJQsqaUBKTNV-1" vertex="1">
          <mxGeometry x="517.6" y="1790" width="100" height="60" as="geometry" />
        </mxCell>
        <mxCell id="RneimjByqYZQrrv_H-xZ-222" value="User selects course" style="text;html=1;strokeColor=none;fillColor=none;align=center;verticalAlign=middle;whiteSpace=wrap;rounded=0;" parent="WIyWlLk6GJQsqaUBKTNV-1" vertex="1">
          <mxGeometry x="526.7111111111111" y="1805" width="77.77777777777779" height="30" as="geometry" />
        </mxCell>
        <mxCell id="RneimjByqYZQrrv_H-xZ-224" value="" style="ellipse;whiteSpace=wrap;html=1;sketch=1;curveFitting=1;jiggle=2;strokeColor=#97D077;" parent="WIyWlLk6GJQsqaUBKTNV-1" vertex="1">
          <mxGeometry x="372" y="1790" width="100" height="60" as="geometry" />
        </mxCell>
        <mxCell id="RneimjByqYZQrrv_H-xZ-225" value="User selects hole #" style="text;html=1;strokeColor=none;fillColor=none;align=center;verticalAlign=middle;whiteSpace=wrap;rounded=0;" parent="WIyWlLk6GJQsqaUBKTNV-1" vertex="1">
          <mxGeometry x="383.1111111111111" y="1805" width="77.77777777777779" height="30" as="geometry" />
        </mxCell>
        <mxCell id="RneimjByqYZQrrv_H-xZ-229" value="" style="ellipse;whiteSpace=wrap;html=1;sketch=1;curveFitting=1;jiggle=2;strokeColor=#97D077;" parent="WIyWlLk6GJQsqaUBKTNV-1" vertex="1">
          <mxGeometry x="226" y="1790" width="100" height="60" as="geometry" />
        </mxCell>
        <mxCell id="RneimjByqYZQrrv_H-xZ-230" value="User uploads disc image" style="text;html=1;strokeColor=none;fillColor=none;align=center;verticalAlign=middle;whiteSpace=wrap;rounded=0;" parent="WIyWlLk6GJQsqaUBKTNV-1" vertex="1">
          <mxGeometry x="237.1111111111111" y="1805" width="77.77777777777779" height="30" as="geometry" />
        </mxCell>
        <mxCell id="RneimjByqYZQrrv_H-xZ-251" value="" style="ellipse;whiteSpace=wrap;html=1;sketch=1;curveFitting=1;jiggle=2;strokeColor=#97D077;" parent="WIyWlLk6GJQsqaUBKTNV-1" vertex="1">
          <mxGeometry x="80" y="1790" width="100" height="60" as="geometry" />
        </mxCell>
        <mxCell id="RneimjByqYZQrrv_H-xZ-252" value="User submits" style="text;html=1;strokeColor=none;fillColor=none;align=center;verticalAlign=middle;whiteSpace=wrap;rounded=0;" parent="WIyWlLk6GJQsqaUBKTNV-1" vertex="1">
          <mxGeometry x="91.11111111111109" y="1805" width="77.77777777777779" height="30" as="geometry" />
        </mxCell>
        <mxCell id="_yKtbphsDDPIgUGRfR-J-7" value="" style="ellipse;whiteSpace=wrap;html=1;sketch=1;curveFitting=1;jiggle=2;strokeColor=#808080;" vertex="1" parent="WIyWlLk6GJQsqaUBKTNV-1">
          <mxGeometry x="223" y="1250" width="100" height="60" as="geometry" />
        </mxCell>
        <mxCell id="_yKtbphsDDPIgUGRfR-J-8" value="Successful login&amp;nbsp;" style="text;html=1;strokeColor=none;fillColor=none;align=center;verticalAlign=middle;whiteSpace=wrap;rounded=0;" vertex="1" parent="WIyWlLk6GJQsqaUBKTNV-1">
          <mxGeometry x="231.11111111111111" y="1265" width="77.77777777777779" height="30" as="geometry" />
        </mxCell>
        <mxCell id="_yKtbphsDDPIgUGRfR-J-9" value="" style="endArrow=block;html=1;rounded=0;exitX=0.5;exitY=1;exitDx=0;exitDy=0;entryX=0.5;entryY=0;entryDx=0;entryDy=0;sketch=1;curveFitting=1;jiggle=2;endFill=0;strokeColor=#808080;" edge="1" parent="WIyWlLk6GJQsqaUBKTNV-1" source="_yKtbphsDDPIgUGRfR-J-7" target="wOWvD_XrdnhtHNe5OrQB-2">
          <mxGeometry width="50" height="50" relative="1" as="geometry">
            <mxPoint x="370" y="1265" as="sourcePoint" />
            <mxPoint x="370" y="1332" as="targetPoint" />
          </mxGeometry>
        </mxCell>
        <mxCell id="_yKtbphsDDPIgUGRfR-J-11" value="" style="group" vertex="1" connectable="0" parent="WIyWlLk6GJQsqaUBKTNV-1">
          <mxGeometry x="1060" y="540.0000000000001" width="100" height="60" as="geometry" />
        </mxCell>
        <mxCell id="RneimjByqYZQrrv_H-xZ-216" value="" style="ellipse;whiteSpace=wrap;html=1;sketch=1;curveFitting=1;jiggle=2;strokeColor=#808080;" parent="_yKtbphsDDPIgUGRfR-J-11" vertex="1">
          <mxGeometry width="100" height="60" as="geometry" />
        </mxCell>
        <mxCell id="RneimjByqYZQrrv_H-xZ-217" value="Any point user logouts" style="text;html=1;strokeColor=none;fillColor=none;align=center;verticalAlign=middle;whiteSpace=wrap;rounded=0;" parent="_yKtbphsDDPIgUGRfR-J-11" vertex="1">
          <mxGeometry x="11.111111111111086" y="15" width="77.77777777777779" height="30" as="geometry" />
        </mxCell>
        <mxCell id="_yKtbphsDDPIgUGRfR-J-15" value="" style="endArrow=block;html=1;rounded=0;entryX=0.5;entryY=0;entryDx=0;entryDy=0;exitX=0.5;exitY=1;exitDx=0;exitDy=0;sketch=1;curveFitting=1;jiggle=2;endFill=0;strokeColor=#808080;" edge="1" parent="WIyWlLk6GJQsqaUBKTNV-1" source="RneimjByqYZQrrv_H-xZ-288" target="_yKtbphsDDPIgUGRfR-J-13">
          <mxGeometry width="50" height="50" relative="1" as="geometry">
            <mxPoint x="1212" y="860" as="sourcePoint" />
            <mxPoint x="1264" y="860" as="targetPoint" />
          </mxGeometry>
        </mxCell>
        <mxCell id="_yKtbphsDDPIgUGRfR-J-18" value="" style="group" vertex="1" connectable="0" parent="WIyWlLk6GJQsqaUBKTNV-1">
          <mxGeometry x="1093" y="860.0000000000001" width="100" height="60" as="geometry" />
        </mxCell>
        <mxCell id="_yKtbphsDDPIgUGRfR-J-13" value="" style="ellipse;whiteSpace=wrap;html=1;sketch=1;curveFitting=1;jiggle=2;strokeColor=#808080;" vertex="1" parent="_yKtbphsDDPIgUGRfR-J-18">
          <mxGeometry width="100" height="60" as="geometry" />
        </mxCell>
        <mxCell id="_yKtbphsDDPIgUGRfR-J-12" value="" style="group" vertex="1" connectable="0" parent="_yKtbphsDDPIgUGRfR-J-18">
          <mxGeometry width="100" height="60" as="geometry" />
        </mxCell>
        <mxCell id="_yKtbphsDDPIgUGRfR-J-14" value="Enters login details" style="text;html=1;strokeColor=none;fillColor=none;align=center;verticalAlign=middle;whiteSpace=wrap;rounded=0;" vertex="1" parent="_yKtbphsDDPIgUGRfR-J-12">
          <mxGeometry x="11.11" y="15" width="78.89" height="30" as="geometry" />
        </mxCell>
        <mxCell id="_yKtbphsDDPIgUGRfR-J-19" value="" style="group" vertex="1" connectable="0" parent="WIyWlLk6GJQsqaUBKTNV-1">
          <mxGeometry x="1215" y="648.62" width="100" height="70" as="geometry" />
        </mxCell>
        <mxCell id="wOWvD_XrdnhtHNe5OrQB-17" value="" style="ellipse;whiteSpace=wrap;html=1;sketch=1;curveFitting=1;jiggle=2;strokeColor=#808080;" parent="_yKtbphsDDPIgUGRfR-J-19" vertex="1">
          <mxGeometry width="100" height="70" as="geometry" />
        </mxCell>
        <mxCell id="wOWvD_XrdnhtHNe5OrQB-18" value="User has an account?" style="text;html=1;strokeColor=none;fillColor=none;align=center;verticalAlign=middle;whiteSpace=wrap;rounded=0;" parent="_yKtbphsDDPIgUGRfR-J-19" vertex="1">
          <mxGeometry x="11.111111111110858" y="17.5" width="77.77777777777779" height="35" as="geometry" />
        </mxCell>
        <mxCell id="_yKtbphsDDPIgUGRfR-J-20" value="" style="group" vertex="1" connectable="0" parent="WIyWlLk6GJQsqaUBKTNV-1">
          <mxGeometry x="1093" y="970.0000000000001" width="100" height="109.99999999999989" as="geometry" />
        </mxCell>
        <mxCell id="_yKtbphsDDPIgUGRfR-J-21" value="" style="ellipse;whiteSpace=wrap;html=1;sketch=1;curveFitting=1;jiggle=2;strokeColor=#808080;" vertex="1" parent="_yKtbphsDDPIgUGRfR-J-20">
          <mxGeometry width="100" height="60" as="geometry" />
        </mxCell>
        <mxCell id="_yKtbphsDDPIgUGRfR-J-22" value="" style="group" vertex="1" connectable="0" parent="_yKtbphsDDPIgUGRfR-J-20">
          <mxGeometry width="100" height="109.99999999999989" as="geometry" />
        </mxCell>
        <mxCell id="_yKtbphsDDPIgUGRfR-J-23" value="Authenticates" style="text;html=1;strokeColor=none;fillColor=none;align=center;verticalAlign=middle;whiteSpace=wrap;rounded=0;" vertex="1" parent="_yKtbphsDDPIgUGRfR-J-22">
          <mxGeometry x="11.111111111111086" y="15" width="77.77777777777779" height="30" as="geometry" />
        </mxCell>
        <mxCell id="_yKtbphsDDPIgUGRfR-J-24" value="" style="endArrow=block;html=1;rounded=0;entryX=0.5;entryY=0;entryDx=0;entryDy=0;sketch=1;curveFitting=1;jiggle=2;endFill=0;strokeColor=#808080;exitX=0.5;exitY=1;exitDx=0;exitDy=0;" edge="1" parent="WIyWlLk6GJQsqaUBKTNV-1" source="_yKtbphsDDPIgUGRfR-J-13" target="_yKtbphsDDPIgUGRfR-J-21">
          <mxGeometry width="50" height="50" relative="1" as="geometry">
            <mxPoint x="1220" y="920" as="sourcePoint" />
            <mxPoint x="1241" y="969" as="targetPoint" />
          </mxGeometry>
        </mxCell>
        <mxCell id="_yKtbphsDDPIgUGRfR-J-25" value="" style="endArrow=block;html=1;rounded=0;verticalAlign=middle;labelBackgroundColor=none;horizontal=1;sketch=1;curveFitting=1;jiggle=2;strokeWidth=1;endFill=0;strokeColor=#FF0000;entryX=0;entryY=0.5;entryDx=0;entryDy=0;exitX=0;exitY=0.5;exitDx=0;exitDy=0;" edge="1" parent="WIyWlLk6GJQsqaUBKTNV-1" source="_yKtbphsDDPIgUGRfR-J-21" target="RneimjByqYZQrrv_H-xZ-288">
          <mxGeometry relative="1" as="geometry">
            <mxPoint x="1090" y="1000" as="sourcePoint" />
            <mxPoint x="1403" y="779" as="targetPoint" />
            <Array as="points">
              <mxPoint x="1050" y="1000" />
              <mxPoint x="1050" y="790" />
            </Array>
          </mxGeometry>
        </mxCell>
        <mxCell id="_yKtbphsDDPIgUGRfR-J-27" value="" style="endArrow=block;html=1;rounded=0;sketch=1;curveFitting=1;jiggle=2;endFill=0;strokeColor=#00CC00;exitX=0.5;exitY=1;exitDx=0;exitDy=0;entryX=0.5;entryY=0;entryDx=0;entryDy=0;" edge="1" parent="WIyWlLk6GJQsqaUBKTNV-1" source="_yKtbphsDDPIgUGRfR-J-21" target="_yKtbphsDDPIgUGRfR-J-29">
          <mxGeometry width="50" height="50" relative="1" as="geometry">
            <mxPoint x="1153" y="930" as="sourcePoint" />
            <mxPoint x="1143" y="1080" as="targetPoint" />
          </mxGeometry>
        </mxCell>
        <mxCell id="_yKtbphsDDPIgUGRfR-J-28" value="" style="group" vertex="1" connectable="0" parent="WIyWlLk6GJQsqaUBKTNV-1">
          <mxGeometry x="1093" y="1070" width="100" height="60" as="geometry" />
        </mxCell>
        <mxCell id="_yKtbphsDDPIgUGRfR-J-29" value="" style="ellipse;whiteSpace=wrap;html=1;sketch=1;curveFitting=1;jiggle=2;strokeColor=#808080;" vertex="1" parent="_yKtbphsDDPIgUGRfR-J-28">
          <mxGeometry width="100" height="60" as="geometry" />
        </mxCell>
        <mxCell id="_yKtbphsDDPIgUGRfR-J-30" value="Taken to dashboard" style="text;html=1;strokeColor=none;fillColor=none;align=center;verticalAlign=middle;whiteSpace=wrap;rounded=0;" vertex="1" parent="_yKtbphsDDPIgUGRfR-J-28">
          <mxGeometry x="11.111111111111086" y="15" width="77.77777777777779" height="30" as="geometry" />
        </mxCell>
        <mxCell id="_yKtbphsDDPIgUGRfR-J-39" value="" style="endArrow=block;html=1;rounded=0;exitX=0.5;exitY=1;exitDx=0;exitDy=0;sketch=1;curveFitting=1;jiggle=2;endFill=0;strokeColor=#808080;entryX=0.5;entryY=0;entryDx=0;entryDy=0;" edge="1" parent="WIyWlLk6GJQsqaUBKTNV-1" source="RneimjByqYZQrrv_H-xZ-287" target="_yKtbphsDDPIgUGRfR-J-61">
          <mxGeometry width="50" height="50" relative="1" as="geometry">
            <mxPoint x="1315" y="830" as="sourcePoint" />
            <mxPoint x="1420" y="850" as="targetPoint" />
          </mxGeometry>
        </mxCell>
        <mxCell id="_yKtbphsDDPIgUGRfR-J-45" value="" style="endArrow=block;html=1;rounded=0;entryX=0.5;entryY=0;entryDx=0;entryDy=0;sketch=1;curveFitting=1;jiggle=2;endFill=0;strokeColor=#808080;exitX=0.5;exitY=1;exitDx=0;exitDy=0;" edge="1" parent="WIyWlLk6GJQsqaUBKTNV-1" source="_yKtbphsDDPIgUGRfR-J-61" target="_yKtbphsDDPIgUGRfR-J-47">
          <mxGeometry width="50" height="50" relative="1" as="geometry">
            <mxPoint x="1410" y="940" as="sourcePoint" />
            <mxPoint x="1396.5" y="970" as="targetPoint" />
          </mxGeometry>
        </mxCell>
        <mxCell id="_yKtbphsDDPIgUGRfR-J-51" value="" style="endArrow=block;html=1;rounded=0;verticalAlign=middle;labelBackgroundColor=none;horizontal=1;sketch=1;curveFitting=1;jiggle=2;strokeWidth=1;endFill=0;strokeColor=#FF0000;exitX=1;exitY=0.5;exitDx=0;exitDy=0;entryX=1;entryY=0.5;entryDx=0;entryDy=0;" edge="1" parent="WIyWlLk6GJQsqaUBKTNV-1" source="_yKtbphsDDPIgUGRfR-J-47" target="_yKtbphsDDPIgUGRfR-J-61">
          <mxGeometry relative="1" as="geometry">
            <mxPoint x="1563" y="1050" as="sourcePoint" />
            <mxPoint x="1460" y="870" as="targetPoint" />
            <Array as="points">
              <mxPoint x="1480" y="1000" />
              <mxPoint x="1480" y="890" />
            </Array>
          </mxGeometry>
        </mxCell>
        <mxCell id="_yKtbphsDDPIgUGRfR-J-47" value="" style="ellipse;whiteSpace=wrap;html=1;sketch=1;curveFitting=1;jiggle=2;strokeColor=#808080;" vertex="1" parent="WIyWlLk6GJQsqaUBKTNV-1">
          <mxGeometry x="1348.55" y="973.1500000000001" width="89.5" height="53.7" as="geometry" />
        </mxCell>
        <mxCell id="_yKtbphsDDPIgUGRfR-J-48" value="Checks valid" style="text;html=1;strokeColor=none;fillColor=none;align=center;verticalAlign=middle;whiteSpace=wrap;rounded=0;" vertex="1" parent="WIyWlLk6GJQsqaUBKTNV-1">
          <mxGeometry x="1357.57" y="985" width="71.45" height="30" as="geometry" />
        </mxCell>
        <mxCell id="_yKtbphsDDPIgUGRfR-J-52" value="" style="endArrow=block;html=1;rounded=0;sketch=1;curveFitting=1;jiggle=2;endFill=0;strokeColor=#00CC00;exitX=0.5;exitY=1;exitDx=0;exitDy=0;entryX=0.5;entryY=0;entryDx=0;entryDy=0;" edge="1" parent="WIyWlLk6GJQsqaUBKTNV-1" target="_yKtbphsDDPIgUGRfR-J-57" source="_yKtbphsDDPIgUGRfR-J-47">
          <mxGeometry width="50" height="50" relative="1" as="geometry">
            <mxPoint x="1360" y="1040" as="sourcePoint" />
            <mxPoint x="1320" y="1040" as="targetPoint" />
          </mxGeometry>
        </mxCell>
        <mxCell id="_yKtbphsDDPIgUGRfR-J-56" value="" style="group" vertex="1" connectable="0" parent="WIyWlLk6GJQsqaUBKTNV-1">
          <mxGeometry x="1343.3" y="1070" width="100" height="60" as="geometry" />
        </mxCell>
        <mxCell id="_yKtbphsDDPIgUGRfR-J-57" value="" style="ellipse;whiteSpace=wrap;html=1;sketch=1;curveFitting=1;jiggle=2;strokeColor=#808080;" vertex="1" parent="_yKtbphsDDPIgUGRfR-J-56">
          <mxGeometry width="100" height="60" as="geometry" />
        </mxCell>
        <mxCell id="_yKtbphsDDPIgUGRfR-J-58" value="Details added to database" style="text;html=1;strokeColor=none;fillColor=none;align=center;verticalAlign=middle;whiteSpace=wrap;rounded=0;" vertex="1" parent="_yKtbphsDDPIgUGRfR-J-56">
          <mxGeometry x="11.111111111111086" y="15" width="77.77777777777779" height="30" as="geometry" />
        </mxCell>
        <mxCell id="_yKtbphsDDPIgUGRfR-J-59" value="" style="endArrow=none;html=1;rounded=0;exitX=0;exitY=0.5;exitDx=0;exitDy=0;sketch=1;curveFitting=1;jiggle=2;strokeColor=#808080;" edge="1" parent="WIyWlLk6GJQsqaUBKTNV-1" source="_yKtbphsDDPIgUGRfR-J-57">
          <mxGeometry width="50" height="50" relative="1" as="geometry">
            <mxPoint x="1270" y="1100" as="sourcePoint" />
            <mxPoint x="1270" y="790" as="targetPoint" />
            <Array as="points">
              <mxPoint x="1270" y="1100" />
            </Array>
          </mxGeometry>
        </mxCell>
        <mxCell id="_yKtbphsDDPIgUGRfR-J-60" value="" style="group" vertex="1" connectable="0" parent="WIyWlLk6GJQsqaUBKTNV-1">
          <mxGeometry x="1343.3" y="860.0000000000001" width="100" height="60" as="geometry" />
        </mxCell>
        <mxCell id="_yKtbphsDDPIgUGRfR-J-61" value="" style="ellipse;whiteSpace=wrap;html=1;sketch=1;curveFitting=1;jiggle=2;strokeColor=#808080;" vertex="1" parent="_yKtbphsDDPIgUGRfR-J-60">
          <mxGeometry width="100" height="60" as="geometry" />
        </mxCell>
        <mxCell id="_yKtbphsDDPIgUGRfR-J-62" value="" style="group" vertex="1" connectable="0" parent="_yKtbphsDDPIgUGRfR-J-60">
          <mxGeometry width="100" height="60" as="geometry" />
        </mxCell>
        <mxCell id="_yKtbphsDDPIgUGRfR-J-63" value="Registers details" style="text;html=1;strokeColor=none;fillColor=none;align=center;verticalAlign=middle;whiteSpace=wrap;rounded=0;" vertex="1" parent="_yKtbphsDDPIgUGRfR-J-62">
          <mxGeometry x="11.11" y="15" width="78.89" height="30" as="geometry" />
        </mxCell>
      </root>
    </mxGraphModel>
  </diagram>
</mxfile>
